<?xml version="1.0" standalone="no"?>
<!DOCTYPE svg PUBLIC "-//W3C//DTD SVG 20010904//EN"
 "http://www.w3.org/TR/2001/REC-SVG-20010904/DTD/svg10.dtd">
<svg version="1.0" xmlns="http://www.w3.org/2000/svg"
 width="600.000000pt" height="600.000000pt" viewBox="0 0 600.000000 600.000000"
 preserveAspectRatio="xMidYMid meet">
<metadata>
Created by potrace 1.14, written by Peter Selinger 2001-2017
</metadata>
<g transform="translate(0.000000,600.000000) scale(0.100000,-0.100000)"
fill="#000000" stroke="none">
<path d="M2410 4641 c-195 -48 -373 -94 -395 -101 -107 -34 -238 -148 -285
-246 -58 -123 -55 -37 -58 -1301 l-3 -1163 -188 0 c-179 0 -190 -1 -221 -22
-111 -76 -111 -210 0 -285 32 -22 40 -23 285 -23 l252 0 569 -141 c643 -160
674 -165 774 -118 91 43 157 118 185 212 l12 42 695 5 c663 5 695 6 723 24 64
42 92 110 74 181 -12 48 -34 76 -80 104 -32 20 -48 21 -306 21 l-273 0 0 1116
c0 1086 -1 1119 -20 1184 -36 120 -139 247 -245 302 -103 54 -132 58 -390 58
l-241 0 -63 70 c-71 79 -135 121 -232 150 -118 36 -173 29 -569 -69z m500
-263 c52 -27 78 -60 90 -114 6 -22 10 -611 10 -1381 l0 -1341 -500 126 -500
127 2 1167 c3 1161 3 1167 24 1194 11 15 32 36 46 47 29 21 688 191 763 196
12 0 41 -9 65 -21z m828 -239 c26 -13 54 -38 70 -62 l27 -41 3 -740 c2 -408 0
-904 -3 -1103 l-7 -363 -244 0 -244 0 0 1165 0 1165 177 0 c160 0 181 -2 221
-21z"/>
</g>
</svg>
